<svg xmlns="http://www.w3.org/2000/svg" viewBox="0 0 449.96 365.44"><defs><style>.cls-1{fill:#f3f5fa;}</style></defs><title>twRecurso 2</title><g id="Capa_2" data-name="Capa 2"><g id="Capa_1-2" data-name="Capa 1"><path class="cls-1" d="M450,43.4a184.2,184.2,0,0,1-53.11,14.28q30-18,40.55-50.82a180.75,180.75,0,0,1-58.53,22.26Q351.45,0,311.49,0q-38.26,0-65.24,27t-27,65.24a102.53,102.53,0,0,0,2.28,21.12,257,257,0,0,1-106.07-28.4A261.53,261.53,0,0,1,31.4,16.84,90.39,90.39,0,0,0,18.84,63.38a89.8,89.8,0,0,0,11.14,44,92.08,92.08,0,0,0,30,32.83,91.52,91.52,0,0,1-41.69-11.71v1.14q0,33.4,21,58.68a90.75,90.75,0,0,0,53,31.83A95.64,95.64,0,0,1,68,223.26a118.37,118.37,0,0,1-17.42-1.42,92.44,92.44,0,0,0,86.23,64Q86.51,325.18,22.27,325.18A195.31,195.31,0,0,1,0,324q64.25,41.4,141.61,41.4,49.11,0,92.21-15.56t73.67-41.68a279.11,279.11,0,0,0,52.67-60.1,268,268,0,0,0,33-70.95A262.06,262.06,0,0,0,404,103.06q0-8-.29-12A193.22,193.22,0,0,0,450,43.4Z"/></g></g></svg>